/* XPM */
static char *_4600_97cc69d0ffd98f9cad12b2aaf5ccde5749962485511c14acdff31cb0a821060a[] = {
/* columns rows colors chars-per-pixel */
"64 64 79 1 ",
"  c black",
". c #202020",
"X c #282828",
"o c #2C2C2C",
"O c gray19",
"+ c #343434",
"@ c gray22",
"# c #400000",
"$ c #4C0000",
"% c #580000",
"& c #640000",
"* c #700000",
"= c #7C0000",
"- c #483818",
"; c #543C1C",
": c #706C00",
"> c #5C4020",
", c #6C4824",
"< c #744C28",
"1 c #004040",
"2 c #005858",
"3 c #006060",
"4 c #006464",
"5 c #006C6C",
"6 c #007070",
"7 c #007474",
"8 c #007878",
"9 c gray25",
"0 c #484848",
"q c gray33",
"w c #646464",
"e c gray44",
"r c #7C7C7C",
"t c #880000",
"y c #980000",
"u c #A40000",
"i c #B00000",
"p c #BC0000",
"a c #C80000",
"s c #D40000",
"d c #E00000",
"f c #EC0000",
"g c #FC0000",
"h c #FC2020",
"j c #80502C",
"k c #885830",
"l c #9C6038",
"z c #A0643C",
"x c #A86840",
"c c #B47044",
"v c #BC7848",
"b c #FC4040",
"n c #FC5C5C",
"m c #C87C4C",
"M c #FC7C7C",
"N c #848400",
"B c #9C9C00",
"V c #B4AC00",
"C c #CCC400",
"Z c #E4D800",
"A c #D08050",
"S c #DC8854",
"D c #E88C58",
"F c #F0945C",
"G c #FC9C60",
"H c #FCA470",
"J c #980088",
"K c #008484",
"L c #009C9C",
"P c gray55",
"I c #989898",
"U c gray66",
"Y c #B4B4B4",
"T c #FC9C9C",
"R c #FCB080",
"E c #FCB8B8",
"W c #C0C0C0",
"Q c #FCD8D8",
"! c #ECECEC",
/* pixels */
"JJJJJJJJJJJJJJJJJJJJJJJJJJJJJJJJJJJJJJJJJJJJJJJJJJJJJJJJJJJJJJJJ",
"JJJJJJJJJJJJJJJJJJJJJJJJJJJJJJJJJJJJJJJJJJJJJJJJJJJJJJJJJJJJJJJJ",
"JJJJJJJJJJJJJJJJJJJJJJJJJJJJJJJJJJJJJJJJJJJJJJJJJJJJJJJJJJJJJJJJ",
"JJJJJJJJJJJJJJJJJJJJJJJJJJJJJJJJJJJJJJJJJJJJJJJJJJJJJJJJJJJJJJJJ",
"JJJJJJJJJJJJJJJJJJJJJJJJJJJ!!!!!!!!!!YeJJJJJJJJJJJJJJJJJJJJJJJJJ",
"JJJJJJJJJJJJJJJJJJJJJJJJJJ!rU!!r00@@@.JeJJJJJJJJJJJJJJJJJJJJJJJJ",
"JJJJJJJJJJJJJJJJJJJJJJJJJ!Iq!!ro00000@.JeJJJJJJJJJJJJJJJJJJJJJJJ",
"JJJJJJJJJJJJJJJJJJJJJyyyy!$0!!<.ooo00<.$@*tttJJJJJJJJJJJJJJJJJJJ",
"JJJJJJJJJJJJJJJJJJJJy&***! 0!!<-...o0x.$ ***t*tJJJJJJJJJJJJJJJJJ",
"JJJJJJJJJJJJJJJJJJJy&t#$$!$0!mmmz<.<.xn$@$$$$t$&JJJJJJJJJJJJJJJJ",
"JJJJJJJJJJJJJJJJJJJyt#$JJ!J@QRHAAAA<.kTJwJJJ$$*%JJJJJJJJJJJJJJJJ",
"JJJJJJJJJJJJJJJJJJJy*$JJJ!JkQ<<DHFR<<kQJwJJJJ**$JJJJJJJJJJJJJJJJ",
"JJJJJJJJJJJJJJJJJJJy*$JJJQJcEeaoj>ofevQJwJJJJt*$JJJJJJJJJJJJJJJJ",
"JJJJJJJJJJJJJJJJJJJy*$JJJEJkEcxxDvxxcvEJqJJJJt*$JJJJJJJJJJJJJJJJ",
"JJJJJJJJJJJJJJJJJJJ**$JJJEJJEDGRRSGGDvTJqJJJJt*$JJJJJJJJJJJJJJJJ",
"JJJJJJJ=JJJJJJJJJJJJ*$$JJTJJExSz>>zmx,TuqJJJt**JJJJJJJJJJJJJJJJJ",
"JJJJJJJtJJJJJJJJJJJJ**$$JTJJTxmz  zmk,MdqJJt**$JJJJJJJJJJJJJJJJJ",
"JJJJJJuy*yJJJJJJJJJJJ**$$TJJTlc;$$;c,,MbqJJ**$JJJJJJJJJJiuuyJJJJ",
"JJJJJ=uat==JJJJJJJ52222221oJTlc$%%$c,-Mo122221 JJJJJJJJ======%%J",
"JJ*J*0aay@=**ooooK666666661owlxj**jx,-o12466662 .tttJJ=0K60oyy=J",
"JJJat6a:i@ta*o@@K88888888871ookxxxxkoo1245588885 .taaptK .2yyp=J",
"JJJtppa:ipat*o@KKKK88855555551oooooo1246665555558 tyghyiiyyagp%J",
"JJ06p:i:fsst2oKKKK8885555555555ooo2455555555555558 iygnhuianayoJ",
"JJisssfN:fsiyt*KKKK866443222222o1162222222345555588.yahBnnNa==oJ",
"Jhhf::NZN::f:hbnnnnK88322222222o116222222345558888ngiidnCCnady=J",
"JJtssffN:ippuy=KKK8852211111111o++21111112122333nbbbbddnCCnhitoJ",
"JJ0tppf:ffp&21KK8LLKKKK642221o1o++21o12246KKKKLL46662idNnnBna2.J",
"JJtsppifippt* KK721111111ooooo1o++21oooo111111125466yinabdaggoJJ",
"JJtsstifi&ts&JKK85LKKK6422221o1o++21o122246KKKL2356JigidgdyagyJJ",
"JJtutoypy@*&&JbbK7211111oooooo1o++21ooooo111112356JJiiyyg2.yygyJ",
"J*tt==*ht==$JthbK75332121111111o++2111111212222344JtJu=ag====tyJ",
"Jtut=00i*@=tphtK765432211111111o++211111112222234J*pJu=agu0o=pJJ",
"JJtppyKs*ttpgpJJ554322121111111o++211111121222222JJJpp6pbp0pp$JJ",
"JJypfppgtpggptJJ333221211111111o++211111112122222JpJpgpabdpbd2pJ",
"JJ0ppsggsg:gptJJJ32222111111111o++21111111122222JJJJ6dnbNbbdp2oJ",
"JJ0ypiNMgNgptJJJJoooooooooooooo.  .oooooooooooooJ=yapdbMVMbdpp=J",
"JJK tinZZnssu2JJJJ                            ==iggbhbNVCVNbsbpJ",
"JtuussgZZnggsuuJiiiuuyytt=====*****=====ttyyuuiii=yaddbMVMbdppoJ",
"JJ@2tiggnNdt2JJJt=&&&%%%$$#############$$%%%&&&=tJJJpddbNbdbd2oJ",
"JJJ@igiiaddhyJJJ62.            oo              JJJJJpppiappddpJJ",
"JJJtsitttahhtyJJ62.............oo6222233444455555JJpJ22ygp02ppJJ",
"JJJ*t@@22yytptJJ622211111111111116222222233444455JJJJyoyguoo=#JJ",
"JJJy%%$$$##yy*yJ2ooooooooooooooo.1111111111111111JJJJy%=a=$###JJ",
"JJuJJJJJJJJJJt*J2ooooooooooooooo.1oooooooooooo111JJJJJJJyJJJJJJJ",
"JJJJJJJJJJJJJJJ*J................1622222222334411JJJJJJJ=JJJJJJJ",
"JJJJJJJJJJJJJJJJJ2ooooooooooooo.J1622222222233311JJJJJJJJJJJJJJJ",
"JJJJJJJJJJJJJJJJJ2ooooooooooooo.JJ62222222222221JJJJJJJJJJJJJJJJ",
"JJJJJJJJJJJJJJJK62ooooooooooooo.JJK666666666666662JJJJJJJJJJJJJJ",
"JJJJJJJJJJJJJJJLK2OOOOOOOOOOOOO.JJLLLLLLLLLLLLLLL6JJJJJJJJJJJJJJ",
"JJJJJJJJJJJJJJWL622222222222221oo0LKKKKKKKKKKKKKK20JJJJJJJJJJJJJ",
"JJJJJJJJJJJJJJPK111111111111111o@qK666666666666661qJJJJJJJJJJJJJ",
"JJJJJJJJJJJJJJe61OOOOOOOOOOOOOOoo@622222222222222o@JJJJJJJJJJJJJ",
"JJJJJJJJJJJJJKK2oXXXXXXXXXXXXXXX.J211111111111111oJJJJJJJJJJJJJJ",
"JJJJJJJJJJJJJK61.................J1oooooooooooooooJJJJJJJJJJJJJJ",
"JJJJJJJJJJJJJK6661............oo.JJJo1111111111oJJJJJJJJJJJJJJJJ",
"JJJJJJJJJJJJJK6661o...........oo.JJJ62222222222oJJJJJJJJJJJJJJJJ",
"JJJJJJJJJJJJJK66621ooooooooooooo.JJJ62222222222oJJJJJJJJJJJJJJJJ",
"JJJJJJJJJJJJJK666621.......ooooo.JJJ62222222222oJJJJJJJJJJJJJJJJ",
"JJJJJJJJJJJJJK666661JJJJJJJooooo.JJJ62222222222oJJJJJJJJJJJJJJJJ",
"JJJJJJJJJJJJJK66666109@@@@@ooooo.66662222222222o1111O@0qwJJJJJJJ",
"JJJJJwwwqq09@6ooooooooooooo......6666666666666666661ooOO+@0qwwJJ",
"JJwwqq09@@@@@oooooooooooooooooooo6666661111116666661oooOO+@@0qwJ",
"JJJJJwwqq099@@@@@@@@@@@@@@@@@@@@@K66666111111K66666199999900qwwJ",
"JJJJJJJJJJJJJJJJJJJJJJJJJJJJJJJJJ611111JJJJJJ611111oJJJJJJJJJJJJ"
};
